<svg width="245" height="90" viewBox="0 0 245 90" fill="none" xmlns="http://www.w3.org/2000/svg">
	<g clip-path="url(#clip0_274_497)">
		<path d="M10.9345 43.7748V70.5424C10.9345 73.5053 8.48925 75.9096 5.46723 75.9096C2.44521 75.9096 0 73.5053 0 70.5424V43.7748C0 40.8119 2.45774 38.4039 5.46723 38.4039C8.47671 38.4039 10.9345 40.8119 10.9345 43.7748ZM0.0877766 29.6323C0.0877766 26.7148 2.49536 24.3483 5.46723 24.3483C8.43909 24.3483 10.8509 26.711 10.8509 29.6323C10.8509 32.5537 8.43909 34.9164 5.46723 34.9164C2.49536 34.9164 0.0877766 32.5499 0.0877766 29.6323Z" fill="#333F48" />
		<path d="M54.5551 6.19747V70.2821C54.5551 73.2487 52.1057 75.6492 49.0837 75.6492C48.1972 75.6384 47.3276 75.4284 46.5534 75.0383C45.7792 74.6483 45.1247 74.0903 44.6489 73.4148C41.9289 74.876 38.823 75.6479 35.6581 75.6492C25.2419 75.6492 16.7652 67.3457 16.7652 57.1059C16.7652 46.8661 25.2419 38.5587 35.6581 38.5587C38.4195 38.5626 41.1408 39.1562 43.5997 40.2912V6.19747C43.5997 3.23461 46.0491 0.830353 49.067 0.830353C52.0848 0.830353 54.5551 3.23461 54.5551 6.19747ZM43.6165 57.1059C43.6165 52.7956 40.0469 49.293 35.6748 49.293C31.3027 49.293 27.7331 52.7956 27.7331 57.1059C27.7331 61.4162 31.3027 64.9188 35.6748 64.9188C40.0469 64.9188 43.6165 61.4275 43.6165 57.1059Z" fill="#333F48" />
		<path d="M94.4139 61.8239C95.4563 62.8598 96.0404 64.2057 96.0551 65.6053C96.0697 67.0049 95.5138 68.3606 94.4933 69.4141C90.2466 73.6677 85.3228 75.7323 79.4459 75.7323C72.4782 75.7323 66.0705 71.9957 62.7559 65.9794C61.2458 63.2203 60.462 60.1836 60.4654 57.1059C60.4654 46.8322 68.9797 38.4758 79.4459 38.4758C86.4973 38.4758 92.9258 42.2803 96.2237 48.4023C97.5947 50.9462 96.6793 54.0978 94.1338 55.5509L77.8869 64.8509C78.3952 64.9493 78.9136 64.9987 79.4334 64.9981C83.0907 64.9981 85.0803 63.511 86.6896 61.8994C87.168 61.4014 87.7579 61.0008 88.4204 60.7238C89.0829 60.4469 89.8029 60.3001 90.5329 60.2929C91.2629 60.2858 91.9863 60.4186 92.6553 60.6825C93.3242 60.9464 93.9236 61.3354 94.4139 61.8239ZM71.45 56.1095L82.4763 49.7988C81.5181 49.4103 80.4796 49.2097 79.4292 49.21C75.3497 49.21 71.9599 52.2257 71.4625 56.1095H71.45Z" fill="#333F48" />
		<path d="M138.929 57.189V70.3652C138.929 73.3281 136.484 75.7324 133.462 75.7324C132.576 75.7226 131.707 75.514 130.933 75.1252C130.159 74.7365 129.504 74.1798 129.027 73.5055C126.307 74.9649 123.201 75.7367 120.037 75.7399C109.616 75.7399 101.14 67.4363 101.14 57.1965C101.14 46.9567 109.616 38.6493 120.037 38.6493C130.457 38.6493 138.929 46.9605 138.929 57.189ZM127.995 57.189C127.995 52.8786 124.425 49.376 120.053 49.376C115.681 49.376 112.112 52.8786 112.112 57.189C112.112 61.4993 115.681 64.9981 120.053 64.9981C124.425 64.9981 127.995 61.4955 127.995 57.189Z" fill="#333F48" />
		<path d="M155.614 6.40882V70.5725C155.614 73.5354 153.165 75.9396 150.147 75.9396C147.129 75.9396 144.68 73.5354 144.68 70.5725V6.40882C144.68 3.44597 147.129 1.04172 150.147 1.04172C153.165 1.04172 155.614 3.44219 155.614 6.40882Z" fill="#333F48" />
		<path d="M173.094 43.7747V70.5424C173.094 73.5053 170.645 75.9096 167.627 75.9096C164.609 75.9096 162.16 73.5053 162.16 70.5424V43.7747C162.16 40.8119 164.605 38.4076 167.627 38.4076C170.649 38.4076 173.094 40.8119 173.094 43.7747Z" fill="#333F48" />
		<path d="M162.16 84.6507C162.193 77.7399 172.885 77.7399 172.919 84.6507C172.885 91.5615 162.193 91.5615 162.16 84.6507Z" fill="#F27A1A" />
		<path d="M199.924 75.1282C197.769 76.5757 195.154 77.3567 192.468 77.355C190.261 77.3332 188.093 76.8229 186.156 75.8687C184.218 74.9146 182.569 73.5457 181.353 71.8823C180.489 70.7221 180.128 69.3147 180.341 67.9296C180.554 66.5444 181.325 65.2788 182.507 64.3751C184.94 62.6163 188.359 63.1258 190.152 65.5074C190.988 66.5907 192.735 66.9492 193.788 66.2623C194.355 65.8358 194.747 65.2491 194.898 64.5969C195.05 63.9448 194.953 63.2656 194.624 62.6691C194.398 62.3246 194.084 62.0341 193.708 61.822C193.332 61.6099 192.905 61.4823 192.463 61.45C187.987 61.25 183.761 58.808 181.433 55.0337C177.696 48.9947 179.573 40.8837 185.613 36.9471C191.653 33.0104 199.995 34.6372 204.23 40.5364C205.968 42.9596 205.375 46.3074 202.909 48.0172C200.443 49.7269 197.028 49.1495 195.289 46.7188C194.486 45.5865 192.718 45.2091 191.653 45.896C191.087 46.3171 190.693 46.8966 190.533 47.5426C190.374 48.1887 190.457 48.8644 190.771 49.4627C190.993 49.8191 191.308 50.121 191.689 50.3421C192.07 50.5632 192.505 50.6966 192.957 50.7309C197.383 50.9272 201.446 53.2295 203.824 56.8906C207.732 62.8994 205.989 71.0897 199.924 75.1282Z" fill="#333F48" />
		<path d="M244.999 29.6017C244.999 32.5646 242.554 34.9689 239.532 34.9689H232.125V70.6214C232.125 73.5842 229.68 75.9885 226.658 75.9885C223.636 75.9885 221.191 73.5842 221.191 70.6214V34.9689H213.784C210.767 34.9689 208.317 32.5646 208.317 29.6017C208.317 26.6389 210.767 24.2346 213.784 24.2346H221.191V5.36288C221.191 2.40002 223.64 -0.00424194 226.658 -0.00424194C229.676 -0.00424194 232.125 2.40002 232.125 5.36288V24.2346H239.532C242.554 24.2346 244.999 26.6389 244.999 29.6017Z" fill="#333F48" />
		<path d="M182.286 86.3757V88.7988C182.286 89.0075 182.213 89.2111 182.078 89.38C181.942 89.549 181.75 89.6747 181.53 89.7389C181.31 89.8032 181.074 89.8027 180.854 89.7375C180.634 89.6723 180.443 89.5458 180.309 89.3763C179.584 89.7288 178.752 89.8571 177.939 89.7416C177.126 89.626 176.377 89.273 175.808 88.7365C175.239 88.2001 174.88 87.5098 174.786 86.7716C174.693 86.0333 174.87 85.2877 175.291 84.6491C175.712 84.0105 176.353 83.5141 177.116 83.236C177.879 82.9579 178.722 82.9134 179.516 83.1093C180.309 83.3053 181.01 83.7308 181.511 84.3208C182.011 84.9108 182.283 85.6326 182.286 86.3757ZM180.1 86.3757C180.1 86.0911 180.006 85.8129 179.831 85.5764C179.656 85.3398 179.407 85.1555 179.115 85.0467C178.824 84.938 178.504 84.9098 178.195 84.9656C177.886 85.0213 177.602 85.1587 177.379 85.3602C177.157 85.5617 177.006 85.8182 176.945 86.0974C176.884 86.3766 176.916 86.6659 177.037 86.9286C177.158 87.1913 177.363 87.4156 177.625 87.5732C177.888 87.7307 178.196 87.8144 178.511 87.8137C178.72 87.8137 178.927 87.7765 179.12 87.7041C179.313 87.6318 179.488 87.5259 179.636 87.3923C179.783 87.2587 179.9 87.1001 179.98 86.9257C180.059 86.7512 180.1 86.5643 180.1 86.3757Z" fill="#333F48" />
		<path d="M190.863 88.784C190.863 89.0452 190.748 89.2958 190.544 89.4805C190.339 89.6653 190.062 89.7691 189.772 89.7691H184.401C184.185 89.7679 183.974 89.7089 183.794 89.5995C183.615 89.49 183.476 89.3351 183.394 89.1541C183.312 88.9732 183.291 88.7745 183.335 88.583C183.378 88.3914 183.483 88.2158 183.636 88.0782L187.11 84.9794H184.401C184.112 84.9794 183.835 84.8756 183.63 84.6909C183.425 84.5061 183.31 84.2556 183.31 83.9943C183.31 83.7331 183.425 83.4825 183.63 83.2978C183.835 83.113 184.112 83.0092 184.401 83.0092H189.772C189.989 83.0093 190.2 83.0675 190.38 83.1765C190.56 83.2854 190.7 83.4402 190.782 83.6211C190.864 83.802 190.884 84.0008 190.841 84.1923C190.797 84.3838 190.692 84.5592 190.537 84.6963L187.064 87.7951H189.772C189.916 87.7951 190.058 87.8207 190.191 87.8704C190.323 87.9202 190.444 87.9931 190.545 88.0849C190.647 88.1768 190.727 88.2859 190.781 88.4058C190.836 88.5258 190.864 88.6543 190.863 88.784Z" fill="#333F48" />
	</g>
	<defs>
		<clipPath id="clip0_274_497">
			<rect width="245" height="89.8331" fill="white" />
		</clipPath>
	</defs>
</svg>
