<?xml version="1.0" encoding="iso-8859-1"?>
<!-- Generator: Adobe Illustrator 19.0.0, SVG Export Plug-In . SVG Version: 6.00 Build 0)  -->
<svg version="1.1" id="Layer_1" xmlns="http://www.w3.org/2000/svg" xmlns:xlink="http://www.w3.org/1999/xlink" x="0px" y="0px"
	 viewBox="0 0 496.2 496.2" style="enable-background:new 0 0 496.2 496.2;" xml:space="preserve">
<path style="fill:#4ABC96;" d="M496.2,248.1C496.2,111.1,385.1,0,248.1,0S0,111.1,0,248.1s111.1,248.1,248.1,248.1
	S496.2,385.1,496.2,248.1z"/>
<polygon style="fill:#3A3A3A;" points="290.1,321.3 275.2,328.4 246.1,277.1 294.4,277.3 "/>
<ellipse transform="matrix(0.2551 -0.9669 0.9669 0.2551 -128.2296 477.9455)" style="fill:#E5E5E5;" cx="246.084" cy="322.197" rx="46.599" ry="33.9"/>
<ellipse transform="matrix(0.2551 -0.9669 0.9669 0.2551 -126.8133 479.7774)" style="fill:#B2B1B1;" cx="247.981" cy="322.194" rx="28.5" ry="20.8"/>
<ellipse transform="matrix(0.2551 -0.9669 0.9669 0.2551 -128.2296 477.9455)" style="fill:#EA4949;" cx="246.084" cy="322.197" rx="24.5" ry="17.9"/>
<ellipse transform="matrix(0.2551 -0.9669 0.9669 0.2551 -126.8059 479.787)" style="fill:#4F4B4B;" cx="247.991" cy="322.194" rx="10.5" ry="7.6"/>
<ellipse transform="matrix(0.2551 -0.9669 0.9669 0.2551 52.9632 596.9249)" style="fill:#E5E5E5;" cx="413.901" cy="264.088" rx="19.3" ry="14.1"/>
<ellipse transform="matrix(0.2551 -0.9669 0.9669 0.2551 53.5332 597.6931)" style="fill:#B2B1B1;" cx="414.685" cy="264.102" rx="11.8" ry="8.6"/>
<ellipse transform="matrix(0.2551 -0.9669 0.9669 0.2551 52.9729 596.9175)" style="fill:#EA4949;" cx="413.901" cy="264.078" rx="10.2" ry="7.4"/>
<ellipse transform="matrix(0.2551 -0.9669 0.9669 0.2551 53.5578 597.7049)" style="fill:#4F4B4B;" cx="414.705" cy="264.092" rx="4.3" ry="3.2"/>
<path style="fill:#EFEEED;" d="M51.9,272.9l-9.7,9.3c0,0-3.6,3.9,2.5,10.4c0,0,55.9,38.3,131.1,57.7c0,0,25.1,8.2,44.4-0.4
	c0,0,5.7-3.2,4.7-12.2s-5.7-8.2-5.7-8.2L51.9,272.9z"/>
<path style="fill:#EA4949;" d="M424,203c0,0-43-16.5-88.1-16.5l-134.7,8.6l113.9,32.3L424,203z"/>
<path style="fill:#CE3232;" d="M391.7,207.3c0,0-43-16.5-88.1-16.5L184,203l98.9,28.7L391.7,207.3z"/>
<path style="fill:#F47171;" d="M197.6,196.2c0,0,107.1,22.2,123.6,21.1c0,0,25.4-2.5,32.6-3.9l94.2-16.1l9.7,0.5l-277.6,113
	L56.9,263.2c0,0-5.4-6.1-4.7-12.2C52.2,251,76.2,215.6,197.6,196.2z"/>
<g>
	<path style="fill:#EA4949;" d="M178,289.7l-2.9-27.6l282.6-64.3l-5.4,45.1l-24.2,13.5c-4.7-5.8-14.1-3.6-14.1-3.6
		c-10.7,4.7-14.3,22.3-14.3,22.3l-109.6,46.2c2.1-43-22.6-41.9-22.6-41.9c-36.5,3.2-51.6,51.6-51.6,51.6l-16.1,3.2l-30.1-6.9
		L178,289.7z"/>
	<path style="fill:#EA4949;" d="M55.1,274.3l1.8-11.1l117.4,45.1l-4.5,19c0,0-24.8-3.7-62.3-19.2S55.1,274.3,55.1,274.3z"/>
</g>
<path style="fill:#D33C3C;" d="M197.6,196.2l-159,26.9c0,0-1,18,4.5,24.8c4.3,5.3,9.8,7.9,15.8,6.2c0,0,27.7-34.4,82.4-44.9
	L197.6,196.2z"/>
<ellipse transform="matrix(-0.112 -0.9937 0.9937 -0.112 -177.2068 316.2502)" style="fill:#FFFDF6;" cx="52.701" cy="237.303" rx="11" ry="10.1"/>
<path style="fill:#EA4949;" d="M197.6,196.2l-159,26.9c0,0,11.8,1.5,18.2,10.7c4.9,7,2.1,20.3,2.1,20.3s27.7-34.4,82.4-44.9
	L197.6,196.2z"/>
<path style="fill:#D33C3C;" d="M346.8,223.8l-173.1,39.1c0,0-4.2,20.4,4.4,28.1c5.6,5,11.2,8,17.7,5.8c0,0,28.1-39.5,87.4-54.6
	L346.8,223.8z"/>
<ellipse transform="matrix(-0.1706 -0.9853 0.9853 -0.1706 -54.6351 511.3808)" style="fill:#FFFDF6;" cx="187.906" cy="278.685" rx="12.1" ry="11.1"/>
<path style="fill:#EA4949;" d="M346.8,223.8l-173.1,39.1c0,0,11.6,1.8,19.2,11.5c5.8,7.4,2.9,22.4,2.9,22.4s28.1-39.5,87.4-54.6
	L346.8,223.8z"/>
<path style="fill:#E5E5E5;" d="M60.1,279.4c0,0-4.3-17.7,7.5-17c0,0,20.8,5.4,44.1,14s60.6,19.5,62.6,31.9c0,0,0.1,12.8-7.5,18.5
	C166.7,326.9,79.4,312.4,60.1,279.4z"/>
<path style="fill:#CCCAC8;" d="M68.4,280.9c0,0-4.2-11.2,5.5-10.5c0,0,17,4.6,36.1,11.8c19.1,7.2,49.7,16.5,51.1,26.6
	c0,0,1.7,9.2-4.7,13.8C156.4,322.7,83.9,308,68.4,280.9z"/>
<path style="fill:#EA4949;" d="M197.6,196.2l28.3-31.6c1.3-1.1,2.3-1.9,2.9-2.1c4.5-1.4,89,6,98.4,9.9c7.5,3.1,11.1,2.9,16.4,17.7
	l6.3,24.2l-24.9,3c0,0-14,1.2-39-3.8C261,208.5,197.6,196.2,197.6,196.2z"/>
<path style="fill:#D8E7EA;" d="M197.6,196.2c0,0,63.4,12.3,88.3,17.3c25,5,39,3.8,39,3.8l20.3-2.5l-5.9-22.6
	c-5.1-14.3-8.5-14.1-15.8-17c-8.9-3.7-91.4-11.6-97.8-10.5C217.4,172.3,197.6,196.2,197.6,196.2z"/>
<path style="fill:#EDEFEF;" d="M197.6,196.2c0,0,63.4,12.3,88.3,17.3c10.2,2,18.6,3.1,24.9,3.5c0,0,22.3-36.6,21.4-37.5
	c-2.3-2.3-5.1-2.8-8.7-4.3c-8.9-3.7-91.4-11.6-97.8-10.5C217.4,172.3,197.6,196.2,197.6,196.2z"/>
<g>
</g>
<g>
</g>
<g>
</g>
<g>
</g>
<g>
</g>
<g>
</g>
<g>
</g>
<g>
</g>
<g>
</g>
<g>
</g>
<g>
</g>
<g>
</g>
<g>
</g>
<g>
</g>
<g>
</g>
</svg>
