<?xml version="1.0" encoding="iso-8859-1"?>
<!-- Generator: Adobe Illustrator 19.0.0, SVG Export Plug-In . SVG Version: 6.00 Build 0)  -->
<svg version="1.1" id="Layer_1" xmlns="http://www.w3.org/2000/svg" xmlns:xlink="http://www.w3.org/1999/xlink" x="0px" y="0px"
	 viewBox="0 0 512 512" style="enable-background:new 0 0 512 512;" xml:space="preserve">
<path style="fill:#F85C67;" d="M510.073,287.465C511.338,277.152,512,266.654,512,256C512,114.616,397.384,0,256,0S0,114.616,0,256
	c0,117.795,79.565,216.991,187.88,246.82L510.073,287.465z"/>
<path style="fill:#F63341;" d="M510.073,287.465l-69.308-69.308L256,114.592L71.235,218.157l61.774,61.774l-32.835,135.184
	l87.706,87.706C209.572,508.793,232.41,512,256,512C386.731,512,494.563,414.004,510.073,287.465z"/>
<polygon style="fill:#FDE59A;" points="440.765,218.157 256,33.391 215.406,224.253 256,415.114 411.826,415.114 411.826,218.157 
	"/>
<g>
	<polygon style="fill:#FEF2CC;" points="71.235,218.157 100.174,218.157 100.174,415.114 256,415.114 256,33.391 	"/>
	<polygon style="fill:#FEF2CC;" points="389.565,198.433 389.565,392.849 256,392.849 222.609,222.979 256,64.868 	"/>
</g>
<polygon style="fill:#FFFFFF;" points="256,64.868 256,392.849 122.435,392.849 122.435,198.433 "/>
<path style="fill:#F63341;" d="M302.445,166.901c-19.147,0-36.094,9.429-46.445,23.898l-21.792,89.894L256,370.588l90.635-110.544
	c8.051-9.834,12.878-22.401,12.878-36.098C359.513,192.442,333.963,166.901,302.445,166.901z"/>
<path style="fill:#F85C67;" d="M209.555,166.901c-31.518,0-57.068,25.541-57.068,57.045c0,13.697,4.826,26.264,12.878,36.098
	L256,370.588V190.799C245.649,176.329,228.701,166.901,209.555,166.901z"/>
<g>
</g>
<g>
</g>
<g>
</g>
<g>
</g>
<g>
</g>
<g>
</g>
<g>
</g>
<g>
</g>
<g>
</g>
<g>
</g>
<g>
</g>
<g>
</g>
<g>
</g>
<g>
</g>
<g>
</g>
</svg>
