<?xml version="1.0" encoding="iso-8859-1"?>
<!-- Generator: Adobe Illustrator 19.0.0, SVG Export Plug-In . SVG Version: 6.00 Build 0)  -->
<svg version="1.1" id="Layer_1" xmlns="http://www.w3.org/2000/svg" xmlns:xlink="http://www.w3.org/1999/xlink" x="0px" y="0px"
	 viewBox="0 0 512 512" style="enable-background:new 0 0 512 512;" xml:space="preserve">
<circle style="fill:#B5F1F4;" cx="256" cy="256" r="256"/>
<path style="fill:#84DBFF;" d="M496.938,342.643l-117.96-115.088l-89.362,109.756l-31.318,89.355l74.543,73.566
	c38.109-11.955,73.98-33.015,104.177-63.214C464.615,409.424,484.578,377.091,496.938,342.643z"/>
<polygon style="fill:#FFFFFF;" points="137.619,227.556 257.724,425.72 257.724,107.451 "/>
<polygon style="fill:#E6F3FF;" points="378.978,227.556 258.298,106.875 257.724,107.451 257.724,425.72 258.298,426.667 "/>
<polygon style="fill:#E09112;" points="258.298,106.875 170.374,194.801 346.224,194.801 "/>
<polygon style="fill:#FF5419;" points="258.298,106.875 257.724,107.449 257.724,194.801 346.224,194.801 "/>
<polygon style="fill:#79D720;" points="258.298,426.667 334.05,301.684 182.548,301.684 "/>
<polygon style="fill:#66B31B;" points="334.05,301.684 257.724,301.684 257.724,425.72 258.298,426.667 "/>
<circle style="fill:#324A5E;" cx="258.293" cy="249.104" r="28.444"/>
<path style="fill:#2B3B4E;" d="M258.298,220.66c-0.193,0-0.381,0.026-0.574,0.029v56.83c0.193,0.003,0.381,0.029,0.574,0.029
	c15.71,0,28.444-12.734,28.444-28.444S274.008,220.66,258.298,220.66z"/>
<path style="fill:#935635;" d="M261.746,174.311v-63.988l-3.448-3.448l-3.448,3.448v63.986
	c-51.164,1.117-94.58,26.957-111.437,62.804l4.375,7.218c14.096-35.714,56.558-61.976,107.061-63.126v239.773l3.448,5.689
	l3.448-5.689V181.208c50.505,1.15,92.967,27.412,107.063,63.126l4.375-7.22C356.326,201.268,312.91,175.428,261.746,174.311z"/>
<path style="fill:#804000;" d="M261.746,174.311v-63.988l-3.448-3.448l-0.574,0.574v318.269l0.574,0.946l3.448-5.689V181.208
	c50.505,1.15,92.967,27.412,107.063,63.126l4.375-7.22C356.326,201.268,312.91,175.428,261.746,174.311z"/>
<g>
</g>
<g>
</g>
<g>
</g>
<g>
</g>
<g>
</g>
<g>
</g>
<g>
</g>
<g>
</g>
<g>
</g>
<g>
</g>
<g>
</g>
<g>
</g>
<g>
</g>
<g>
</g>
<g>
</g>
</svg>
