<?xml version="1.0" encoding="iso-8859-1"?>
<!-- Generator: Adobe Illustrator 19.0.0, SVG Export Plug-In . SVG Version: 6.00 Build 0)  -->
<svg version="1.1" id="Layer_1" xmlns="http://www.w3.org/2000/svg" xmlns:xlink="http://www.w3.org/1999/xlink" x="0px" y="0px"
	 viewBox="0 0 512 512" style="enable-background:new 0 0 512 512;" xml:space="preserve">
<path style="fill:#FBC09B;" d="M510.295,226.469C495.649,98.996,387.395,0,256,0C114.616,0,0,114.616,0,256
	c0,130.09,97.038,237.509,222.678,253.843L510.295,226.469z"/>
<path style="fill:#F79E73;" d="M512,256c0-9.99-0.592-19.84-1.705-29.531L317.217,33.391L256,155.826v144.696l-77.913,164.73
	l44.591,44.591C233.586,511.261,244.706,512,256,512C397.384,512,512,397.384,512,256z"/>
<rect x="244.87" y="100.174" style="fill:#008CCB;" width="22.261" height="200.348"/>
<polygon style="fill:#E64A55;" points="256,465.252 333.913,465.252 356.174,278.261 256,278.261 226.538,371.757 "/>
<polygon style="fill:#ED6350;" points="155.826,278.261 178.087,465.252 256,465.252 256,278.261 "/>
<g>
	<rect x="200.348" y="420.73" style="fill:#E64A55;" width="22.261" height="22.261"/>
	<rect x="233.739" y="387.339" style="fill:#E64A55;" width="22.261" height="22.261"/>
</g>
<path style="fill:#C42B50;" d="M256,77.591l-24.487,39.118L256,155.826c33.81,0,61.217-27.408,61.217-61.217
	c0-33.811,0-61.217,0-61.217C288.693,33.391,264.498,51.917,256,77.591z"/>
<path style="fill:#E0315B;" d="M194.783,33.391c0,0,0,27.406,0,61.217c0,33.81,27.408,61.217,61.217,61.217V77.591
	C247.502,51.917,223.307,33.391,194.783,33.391z"/>
<polygon style="fill:#ED6350;" points="367.304,256 256,256 233.739,272.696 256,300.522 367.304,300.522 "/>
<rect x="144.696" y="256" style="fill:#F37C4A;" width="111.304" height="44.522"/>
<path style="fill:#008CCB;" d="M144.325,144.696c0,61.472,49.832,111.304,111.304,111.304l-44.522-55.652L144.325,144.696z"/>
<path style="fill:#006998;" d="M366.934,144.696c0,61.472-49.832,111.304-111.304,111.304l44.522-55.652L366.934,144.696z"/>
<path style="fill:#008CCB;" d="M255.629,256l111.304-111.304C305.463,144.696,255.629,194.529,255.629,256z"/>
<path style="fill:#3AAADC;" d="M144.325,144.696L255.629,256C255.629,194.529,205.796,144.696,144.325,144.696z"/>
<g>
</g>
<g>
</g>
<g>
</g>
<g>
</g>
<g>
</g>
<g>
</g>
<g>
</g>
<g>
</g>
<g>
</g>
<g>
</g>
<g>
</g>
<g>
</g>
<g>
</g>
<g>
</g>
<g>
</g>
</svg>
