<?xml version="1.0" encoding="iso-8859-1"?>
<!-- Generator: Adobe Illustrator 19.0.0, SVG Export Plug-In . SVG Version: 6.00 Build 0)  -->
<svg version="1.1" id="Layer_1" xmlns="http://www.w3.org/2000/svg" xmlns:xlink="http://www.w3.org/1999/xlink" x="0px" y="0px"
	 viewBox="0 0 505 505" style="enable-background:new 0 0 505 505;" xml:space="preserve">
<circle style="fill:#84DBFF;" cx="252.5" cy="252.5" r="252.5"/>
<path style="fill:#F9B54C;" d="M301.1,264.1c0,1.4,0,2.8-0.1,4.2c-0.7,20.9-6.4,39.6-15.3,52.9c-12.5-14.4-26.4-28.7-33.2-29.7l0,0
	l0,0c-6.9,1-20.7,15.3-33.1,29.7c-8.9-13.4-14.7-32.1-15.3-52.9c0-1.4-0.1-2.8-0.1-4.2c0-6.7,0.5-13.2,1.5-19.4c0,0,0,0,0-0.1
	c1-6.3,2.5-12.3,4.4-18c8.2-24.3,24.3-40.8,42.7-40.8s34.4,16.5,42.7,40.8c1.9,5.6,3.4,11.7,4.4,18.1
	C300.6,251,301.1,257.4,301.1,264.1z"/>
<path style="fill:#324A5E;" d="M310.7,352.1c0,0-11.7-15.5-25-30.9c-12.5-14.4-26.4-28.7-33.2-29.7l0,0v-0.2l0,0
	c0.1-0.1,0.5-0.2,1-0.4c0.2-0.1,0.5-0.2,0.7-0.3c8.2-3.3,41.1-17,40.5-26.6c0,0,2.2,1.6,6.2,4.3c3.1,2,7.3,4.7,12.3,7.7
	C315.4,292,315.4,316,310.7,352.1z"/>
<path style="fill:#FFFFFF;" d="M310.7,352.1c0,0-11.7-15.5-25-30.9c-12.5-14.4-26.4-28.7-33.2-29.7l0,0l0,0c0,0,0,0-0.1,0
	c0,0,0,0,0.1,0l0,0c0.2-0.1,0.5-0.3,1-0.6c0.2-0.1,0.5-0.2,0.7-0.3c8-4,38.8-20.7,45.3-45.9c0,0,0-0.1,0-0.2c0,0,10.1,2.4,13.7,31.4
	C315.4,292,315.4,316,310.7,352.1z"/>
<g>
	<path style="fill:#324A5E;" d="M445.4,415.4c-18.9,22.4-41.7,41.5-67.3,56.1c-3.4,2-6.8,3.8-10.3,5.6
		c-34.6,17.8-73.7,27.8-115.3,27.8l0,0c-41.5,0-80.7-10-115.2-27.8c-3.5-1.8-6.9-3.7-10.3-5.6c-25.6-14.7-48.3-33.7-67.3-56.1
		c0.7-10.5,1.6-20.1,2.5-28.6c8.2-75.1,82.6-86.7,82.6-86.7c19.1-8.2,35.4-17.2,46.9-24.2c-2,16-2,40,2.7,76.1
		c0,0,11.7-15.5,24.9-30.9c12.4-14.4,26.3-28.6,33.1-29.7l0,0l0,0c6.8,1,20.7,15.2,33.2,29.7c13.3,15.3,25,30.9,25,30.9
		c4.7-36.1,4.7-60.1,2.7-76.1c11.6,7,27.9,16,47,24.2c0,0,74.4,11.6,82.6,86.7C443.8,395.4,444.6,405,445.4,415.4z"/>
	<path style="fill:#324A5E;" d="M252.5,291.4v0.2l0,0l0,0c-6.9,1-20.7,15.3-33.1,29.7c-13.3,15.3-24.9,30.9-24.9,30.9
		c-4.7-36.1-4.7-60.1-2.7-76.1c5-3,9.2-5.7,12.3-7.7c4.1-2.6,6.3-4.3,6.3-4.3c-0.6,9.6,32.3,23.3,40.5,26.6c0.1,0,0.2,0,0.2,0.1
		C251.8,291.1,252.3,291.3,252.5,291.4L252.5,291.4z"/>
</g>
<path style="fill:#FFFFFF;" d="M252.6,291.6h-0.1l0,0l0,0c-6.9,1-20.7,15.3-33.1,29.7c-13.3,15.3-24.9,30.9-24.9,30.9
	c-4.7-36.1-4.7-60.1-2.7-76.1c3.6-29,13.7-31.4,13.7-31.4s0,0,0,0.1c6.5,25.2,37.3,41.9,45.3,46c0.1,0,0.2,0,0.2,0.1
	c0.8,0.4,1.3,0.6,1.6,0.8l0,0C252.6,291.6,252.6,291.6,252.6,291.6z"/>
<g>
	<path style="fill:#FFD05B;" d="M332.4,149.9c-1,9.3-6.3,21.7-11.3,21.1c-5-0.5-7.7-13.8-6.8-23.1s5.3-11.1,10.3-10.6
		C329.6,137.9,333.4,140.6,332.4,149.9z"/>
	<path style="fill:#FFD05B;" d="M172.6,149.9c1,9.3,6.3,21.7,11.3,21.1c5-0.5,7.7-13.8,6.8-23.1s-5.3-11.1-10.3-10.6
		C175.4,137.9,171.6,140.6,172.6,149.9z"/>
	<ellipse style="fill:#FFD05B;" cx="252.5" cy="162.6" rx="72.7" ry="79.2"/>
</g>
<path style="fill:#324A5E;" d="M321.7,129c0,2.8-0.1,5.6-0.3,8.4l-0.1,0.1l-20.5,24c-12.5-13.8-29.5-22.3-48.3-22.3
	s-35.8,8.5-48.3,22.2l-20.6-24l-0.1-0.1c-0.2-2.8-0.3-5.6-0.3-8.4c0-51.5,31-77.8,69.2-77.8C290.7,51.2,321.7,77.5,321.7,129z"/>
<path style="fill:#2B3B4E;" d="M321.3,137.4c-17.8-19.6-42-31.7-68.8-31.7s-51.1,12.1-68.8,31.7l0,0l6.6,7.7l14,16.3
	c12.5-13.8,29.5-22.2,48.3-22.2s35.8,8.4,48.3,22.3l14-16.3L321.3,137.4L321.3,137.4z"/>
<rect x="129.4" y="384.1" style="fill:#E6E9EE;" width="107.1" height="64.6"/>
<rect x="173.4" y="369.2" style="fill:#84DBFF;" width="19.2" height="25.1"/>
<g>
	<rect x="186" y="405.4" style="fill:#CED5E0;" width="42.1" height="4.1"/>
	<rect x="186" y="417.3" style="fill:#CED5E0;" width="42.1" height="4.1"/>
	<rect x="186" y="429.2" style="fill:#CED5E0;" width="42.1" height="4.1"/>
	<circle style="fill:#CED5E0;" cx="158.1" cy="408.7" r="8.1"/>
	<path style="fill:#CED5E0;" d="M176.6,433.6c-5,4.3-11.4,6.8-18.5,6.8s-13.5-2.6-18.5-6.8c2-8.4,9.5-14.6,18.5-14.6
		S174.6,425.2,176.6,433.6z"/>
</g>
<g>
</g>
<g>
</g>
<g>
</g>
<g>
</g>
<g>
</g>
<g>
</g>
<g>
</g>
<g>
</g>
<g>
</g>
<g>
</g>
<g>
</g>
<g>
</g>
<g>
</g>
<g>
</g>
<g>
</g>
</svg>
