<?xml version="1.0" encoding="iso-8859-1"?>
<!-- Generator: Adobe Illustrator 19.0.0, SVG Export Plug-In . SVG Version: 6.00 Build 0)  -->
<svg version="1.1" id="Layer_1" xmlns="http://www.w3.org/2000/svg" xmlns:xlink="http://www.w3.org/1999/xlink" x="0px" y="0px"
	 viewBox="0 0 512.001 512.001" style="enable-background:new 0 0 512.001 512.001;" xml:space="preserve">
<path style="fill:#47CEAC;" d="M0.001,256.006c0,141.395,114.606,255.998,255.996,255.994
	c141.398,0.004,256.004-114.598,256.004-255.994C512.009,114.61,397.395,0,255.996,0C114.606,0,0.001,114.614,0.001,256.006z"/>
<path style="fill:#36BB9A;" d="M511.373,273.823c-1.824-1.561-192.686-193.293-193.222-193.739
	c-1.107-1.623-2.821-2.825-4.909-3.175c-4.126-0.73-7.918,2.064-8.604,6.125l-7.286,43.414c-16.687,1.557-27.669,5.148-34.9,9.09
	c-0.236-0.229-56.209-55.551-56.786-55.943c-1.633-1.971-4.156-3.127-6.909-2.685c-4.061,0.685-6.811,4.535-6.125,8.604
	l6.975,41.513c-0.198,0.13-0.43,0.193-0.618,0.341c-0.313,0.255-31.477,25.754-1.742,74.703
	c12.724,20.963,11.185,29.633,9.937,32.389c-1.349,2.954-7.467,4.448-8.611,5.499c-5.665,5.198-55.175,51.887-49.189,88.564
	c0.282,1.732,6.325,8.096,6.753,8.501c-13.709,15.923-27.877,44.506-13.498,75.31c0.515,1.103,94.327,96.771,96.796,99.12
	c5.477,0.35,10.995,0.547,16.56,0.547C391.404,512.003,502.225,406.902,511.373,273.823z"/>
<path style="fill:#F4F6F9;" d="M355.186,336.208l4.062-2.589c1.801-1.145,3.019-2.997,3.369-5.097
	c5.994-36.677-43.509-83.365-49.175-88.564c-1.145-1.05-2.581-1.713-4.119-1.91c-0.029,0-3.047-0.598-4.426-3.449
	c-1.312-2.72-2.982-11.346,9.873-32.528c29.721-48.949-1.429-74.448-1.743-74.703c-0.19-0.149-0.425-0.211-0.625-0.341l6.969-41.513
	c0.686-4.068-2.064-7.919-6.125-8.604c-4.127-0.73-7.919,2.064-8.604,6.125l-7.289,43.414c-22.689,2.117-34.863,7.991-41.347,13.402
	c-6.485-5.411-18.654-11.28-41.347-13.401l-7.295-43.417c-0.686-4.062-4.484-6.788-8.604-6.125
	c-4.062,0.686-6.811,4.535-6.125,8.604l6.975,41.513c-0.197,0.13-0.429,0.194-0.617,0.341c-0.314,0.255-31.478,25.755-1.743,74.703
	c12.724,20.963,11.185,29.633,9.938,32.389c-1.349,2.954-4.317,3.551-4.492,3.587c-1.538,0.197-2.975,0.861-4.119,1.91
	c-5.666,5.199-55.177,51.888-49.189,88.564c0.342,2.1,1.568,3.959,3.369,5.096l4.068,2.589
	c-13.913,15.757-28.802,44.807-14.182,76.125c0.649,1.386,1.707,2.545,3.034,3.311c1.386,0.795,34.767,19.564,110.331,19.564
	c75.571,0,108.938-18.769,110.323-19.564c1.327-0.766,2.384-1.925,3.034-3.311C383.98,381.015,369.091,351.965,355.186,336.208z
	 M356.826,403.737c-7.926,3.756-39.426,16.538-100.822,16.538c-60.958,0-92.86-12.826-100.844-16.559
	c-14.197-34.511,17.034-61.957,18.382-63.124c1.808-1.538,2.771-3.836,2.603-6.205c-0.16-2.363-1.437-4.507-3.442-5.775
	l-8.881-5.644c-0.758-23.581,29.532-57.517,43.458-70.707c3.595-1.065,9.771-3.893,13.285-11.164
	c5.315-11.018,1.859-26.316-10.558-46.777c-18.849-31.041-8.071-48.235-3.478-53.499c36.298,1.882,42.197,12.943,42.27,12.935
	c0.89,3.245,3.756,5.746,7.124,5.746c3.369,0,6.235-1.998,7.124-5.25c0.051-0.116,5.541-11.521,42.437-13.431
	c4.579,5.25,15.378,22.444-3.478,53.506c-12.425,20.453-15.874,35.751-10.558,46.769c3.507,7.269,9.691,10.099,13.293,11.171
	c13.92,13.169,44.209,47.089,43.437,70.7l-8.874,5.644c-2.005,1.268-3.281,3.412-3.449,5.782c-0.16,2.363,0.802,4.659,2.61,6.198
	C338.801,340.875,371.117,368.991,356.826,403.737z"/>
<g>
</g>
<g>
</g>
<g>
</g>
<g>
</g>
<g>
</g>
<g>
</g>
<g>
</g>
<g>
</g>
<g>
</g>
<g>
</g>
<g>
</g>
<g>
</g>
<g>
</g>
<g>
</g>
<g>
</g>
</svg>
